<?xml version="1.0" encoding="iso-8859-1"?>
<!-- Generator: Adobe Illustrator 16.0.0, SVG Export Plug-In . SVG Version: 6.00 Build 0)  -->
<!DOCTYPE svg PUBLIC "-//W3C//DTD SVG 1.1//EN" "http://www.w3.org/Graphics/SVG/1.1/DTD/svg11.dtd">
<svg version="1.1" id="Capa_1" xmlns="http://www.w3.org/2000/svg" xmlns:xlink="http://www.w3.org/1999/xlink" x="0px" y="0px"
	 width="100%" height="100%" viewBox="0 0 612.035 612.035" style="enable-background:new 0 0 612.035 612.035;"
	 xml:space="preserve">
<g>
	<path d="M599.796,236.905H514.33c3.173-19.945,3.208-37.938,3.068-50.178l-0.07-5.648c0-4.568-0.627-11.089-2.092-18.726h84.56
		c6.729,0,12.204-5.439,12.204-12.204c0-6.73-5.439-12.205-12.204-12.205h-90.767C491.595,84.28,442.603,7.393,325.126,7.393
		H112.839c-0.767,0-1.5,0.279-2.232,0.418c-0.767-0.14-1.464-0.418-2.267-0.418c-6.729,0-12.204,5.439-12.204,12.204V137.98H12.205
		C5.439,137.945,0,143.385,0,150.149c0,6.73,5.439,12.205,12.205,12.205h83.966v74.586H12.205C5.439,236.905,0,242.345,0,249.11
		c0,6.73,5.439,12.205,12.205,12.205h83.966v331.124c0,6.729,5.44,12.204,12.205,12.204c6.73,0,12.204-5.439,12.204-12.204V380.987
		c0.07,0,0.14,0.07,0.209,0.07h172.989c81.002,0,141.048-19.214,178.464-57.013c19.317-19.562,30.127-41.53,36.508-62.73h91.08
		c6.73,0,12.205-5.44,12.205-12.205C612,242.345,606.525,236.905,599.796,236.905z M120.545,31.767h204.581
		c98.193,0,141.502,60.534,158.344,106.178H120.545V31.767z M454.877,306.854c-32.708,33.021-86.896,49.794-161.134,49.794H120.754
		c-0.069,0-0.139,0-0.209,0v-95.369h362.437C477.298,277.076,468.65,292.906,454.877,306.854z M489.468,236.905H120.545v-74.586
		h370.004c1.604,7.707,2.371,14.297,2.371,18.725l0.034,5.928C493.129,199.037,493.129,217.169,489.468,236.905z"/>
</g>
<g>
</g>
<g>
</g>
<g>
</g>
<g>
</g>
<g>
</g>
<g>
</g>
<g>
</g>
<g>
</g>
<g>
</g>
<g>
</g>
<g>
</g>
<g>
</g>
<g>
</g>
<g>
</g>
<g>
</g>
</svg>
